# xmcd
#
# Track frame offsets: 
#        150
#        3132
#        27780
#        50522
#        76117
#        102087
#        121982
#        141252
#        164787
#        184087
#        208607
#        221765
#        243987
#        264577
#        295677
#
# Disc length: 4348 seconds
#
# Revision: 2
# Processed by: cddbd v1.5.2PL0 Copyright (c) Steve Scherf et al.
# Submitted via: ExactAudioCopy v1.1
#
DISCID=cf10fa0f
DTITLE=Various Artist - Millenium Jazz, Volume 4
DYEAR=2003
DGENRE=Jazz
TTITLE0=Calmstreet - Local Impression 1
TTITLE1=Waiwan - The Deep
TTITLE2=F-Class - Blue Day
TTITLE3=Audio lotion - Jacuzzi Jazz
TTITLE4=Naomi - We Are So Beautiful
TTITLE5=Zorg - Monte Carlo
TTITLE6=Koop feat. Earl Zinger - Modal Mile
TTITLE7=Crazy penis - Change
TTITLE8=Dublex inc. - Sorrover
TTITLE9=Calmstreet - Third Wave
TTITLE10=Phil Ranelin - Wife (Piece of Detroit Mix)
TTITLE11=Monsieur Charles - Ic Le Funk
TTITLE12=Digital Alkemist - Nazka Plate
TTITLE13=Stéphane Pompougnac - Closer to Julie (Rollercone Mix)
TTITLE14=The notwist - Your Signs
EXTD=YEAR: 2003
EXTT0=
EXTT1=
EXTT2=
EXTT3=
EXTT4=
EXTT5=
EXTT6=
EXTT7=
EXTT8=
EXTT9=
EXTT10=
EXTT11=
EXTT12=
EXTT13=
EXTT14=
PLAYORDER=
